<?xml version="1.0" encoding="UTF-8"?>
<svg version="1.1" xmlns="http://www.w3.org/2000/svg" width="64" height="64">
<path d="M0 0 C0.33 1.65 0.66 3.3 1 5 C1.66 4.67 2.32 4.34 3 4 C8.1810585 3.49860724 8.1810585 3.49860724 11 4 C13.5 6.25 13.5 6.25 15 9 C15 10.32 15 11.64 15 13 C10.71 13.99 6.42 14.98 2 16 C8.93 16.495 8.93 16.495 16 17 C15.50161063 22.19786987 14.98645984 27.39370311 14.45581055 32.58837891 C14.27770494 34.35517355 14.1041613 36.12243434 13.93530273 37.89013672 C13.69156166 40.43333539 13.43137644 42.97439737 13.16796875 45.515625 C13.05995186 46.69865204 13.05995186 46.69865204 12.94975281 47.90557861 C12.1439524 55.37733354 12.1439524 55.37733354 9 58 C6.30444336 58.48583984 6.30444336 58.48583984 3.08984375 58.4609375 C1.93548828 58.45707031 0.78113281 58.45320313 -0.40820312 58.44921875 C-1.61412109 58.42472656 -2.82003906 58.40023437 -4.0625 58.375 C-5.27228516 58.37371094 -6.48207031 58.37242188 -7.72851562 58.37109375 C-16.71936759 58.28063241 -16.71936759 58.28063241 -19 56 C-19.53869054 53.2338475 -19.96729728 50.52887494 -20.32421875 47.73828125 C-20.43474075 46.91426315 -20.54526276 46.09024506 -20.65913391 45.24125671 C-20.89100631 43.49415854 -21.11852343 41.74647771 -21.34204102 39.99829102 C-21.68412919 37.33870652 -22.04516125 34.68218585 -22.40820312 32.02539062 C-22.63136426 30.3256722 -22.85340503 28.62580623 -23.07421875 26.92578125 C-23.18247482 26.13698074 -23.2907309 25.34818024 -23.40226746 24.53547668 C-23.98744043 19.82903609 -24.06804387 15.68393795 -23 11 C-20.31851774 8.69094583 -18.71136356 8.04742424 -15.1875 7.8125 C-14.465625 7.874375 -13.74375 7.93625 -13 8 C-13 6.02 -13 4.04 -13 2 C-8.49646738 0.24252386 -4.82360189 -0.19294408 0 0 Z M-10 4 C-10 4.99 -10 5.98 -10 7 C-7.36 6.67 -4.72 6.34 -2 6 C-2 5.01 -2 4.02 -2 3 C-5.04386724 2.91773332 -7.07175348 3.02391783 -10 4 Z M-7.75 8.8125 C-8.69488281 8.97814453 -9.63976563 9.14378906 -10.61328125 9.31445312 C-11.97259766 9.5706543 -11.97259766 9.5706543 -13.359375 9.83203125 C-14.58865723 10.05983276 -14.58865723 10.05983276 -15.84277344 10.29223633 C-18.32376374 11.10622353 -19.43925864 11.91743692 -21 14 C-21 14.99 -21 15.98 -21 17 C-17.10380191 16.30690978 -13.20772886 15.61312131 -9.31176758 14.91870117 C-7.33876947 14.56718032 -5.36567442 14.21620367 -3.39257812 13.86523438 C-2.14541016 13.64287109 -0.89824219 13.42050781 0.38671875 13.19140625 C1.53358154 12.98717041 2.68044434 12.78293457 3.86206055 12.57250977 C6.58125448 12.07639915 9.29174423 11.55229786 12 11 C11.34 9.68 10.68 8.36 10 7 C3.89406723 6.75542534 -1.76082309 7.67031994 -7.75 8.8125 Z M-20 20 C-19.41118226 28.83226612 -18.8474686 37.26855431 -17.4375 45.9375 C-17.29892578 46.82373047 -17.16035156 47.70996094 -17.01757812 48.62304688 C-16.68422322 50.74962125 -16.34302608 52.8749642 -16 55 C-12.02084841 55.02886984 -8.04172347 55.04675406 -4.0625 55.0625 C-2.35803711 55.07506836 -2.35803711 55.07506836 -0.61914062 55.08789062 C0.46044922 55.09111328 1.54003906 55.09433594 2.65234375 55.09765625 C3.65257568 55.10289307 4.65280762 55.10812988 5.68334961 55.11352539 C7.96207228 55.26181095 7.96207228 55.26181095 9 54 C9.37347351 51.48697279 9.69130433 48.98861404 9.97265625 46.46484375 C10.06002548 45.71159317 10.14739471 44.95834259 10.2374115 44.18226624 C10.51651399 41.76779277 10.7895674 39.35267794 11.0625 36.9375 C11.2502541 35.30399079 11.4384 33.67052655 11.62695312 32.03710938 C12.08993109 28.02531349 12.5447323 24.01270833 13 20 C2.11 20 -8.78 20 -20 20 Z " fill="#000000" transform="translate(36,3)"/>
<path d="M0 0 C0.99 0.33 1.98 0.66 3 1 C3 8.26 3 15.52 3 23 C2.01 23 1.02 23 0 23 C0 15.41 0 7.82 0 0 Z " fill="#000000" transform="translate(31,32)"/>
<path d="M0 0 C0.99 0 1.98 0 3 0 C2.85761163 2.04190981 2.71092972 4.08352045 2.5625 6.125 C2.48128906 7.26195312 2.40007813 8.39890625 2.31640625 9.5703125 C2.02269035 12.7540478 1.56875687 15.85510907 1 19 C0.01 19 -0.98 19 -2 19 C-1.85761163 16.95809019 -1.71092972 14.91647955 -1.5625 12.875 C-1.48128906 11.73804688 -1.40007813 10.60109375 -1.31640625 9.4296875 C-1.02269035 6.2459522 -0.56875687 3.14489093 0 0 Z " fill="#000000" transform="translate(41,36)"/>
<path d="M0 0 C0.99 0 1.98 0 3 0 C4.32388229 6.43028541 5.24794402 12.4294834 5 19 C4.34 19 3.68 19 3 19 C1.46667709 12.66226532 0.51553879 6.49850211 0 0 Z " fill="#000000" transform="translate(20,36)"/>
</svg>
