<?xml version="1.0" encoding="UTF-8"?>
<svg version="1.1" xmlns="http://www.w3.org/2000/svg" width="128" height="128">
<path d="M0 0 C4.10901108 3.03709515 5.80785773 6.47792365 8 11 C9.12277344 10.566875 10.24554688 10.13375 11.40234375 9.6875 C12.91377688 9.12423299 14.42551214 8.56177624 15.9375 8 C16.67291016 7.71382812 17.40832031 7.42765625 18.16601562 7.1328125 C23.46043595 5.19075439 28.35402725 4.26959217 34 5 C36.5625 6.4375 36.5625 6.4375 38 9 C38.54055791 12.10109538 38.73535289 14.9288203 38 18 C34.88003834 21.83276902 31.64957599 23.15862549 27.046875 24.796875 C26.05654266 25.15462006 26.05654266 25.15462006 25.04620361 25.51959229 C22.95109936 26.27369585 20.85082875 27.0120141 18.75 27.75 C17.32254604 28.26068396 15.89545806 28.77239214 14.46875 29.28515625 C10.98332385 30.53531963 7.49309229 31.77139513 4 33 C4.82725586 33.01458252 5.65451172 33.02916504 6.50683594 33.04418945 C10.25502881 33.1186586 14.00232997 33.2153246 17.75 33.3125 C19.70292969 33.34633789 19.70292969 33.34633789 21.6953125 33.38085938 C22.94570312 33.41630859 24.19609375 33.45175781 25.484375 33.48828125 C26.63647461 33.51446533 27.78857422 33.54064941 28.97558594 33.56762695 C32.34085197 34.04872851 33.58815574 34.65485829 36 37 C36.31018066 39.13903809 36.31018066 39.13903809 36.04101562 41.64648438 C35.90572449 43.05903503 35.90572449 43.05903503 35.7677002 44.50012207 C35.58878235 46.0314679 35.58878235 46.0314679 35.40625 47.59375 C35.29889526 48.65879761 35.19154053 49.72384521 35.08093262 50.82116699 C34.85199418 53.07779872 34.61416942 55.33354389 34.36816406 57.58837891 C34.01422255 60.8682056 33.69186682 64.14926247 33.3828125 67.43359375 C32.88399147 72.72670687 32.35975793 78.01678492 31.82275391 83.30615234 C31.49456198 86.55381253 31.17503495 89.80226228 30.85546875 93.05078125 C30.6437557 95.14849071 30.43153568 97.24614908 30.21875 99.34375 C30.12597778 100.2989856 30.03320557 101.25422119 29.93762207 102.23840332 C28.32844026 117.77903679 28.32844026 117.77903679 22 123 C19.45636548 124.27181726 17.65115026 124.14082677 14.8034668 124.16113281 C13.71861496 124.17074036 12.63376312 124.1803479 11.51603699 124.19024658 C10.33898697 124.19449646 9.16193695 124.19874634 7.94921875 124.203125 C6.14007744 124.21167511 6.14007744 124.21167511 4.29438782 124.22039795 C1.73801555 124.22985846 -0.81836898 124.23638609 -3.37475586 124.24023438 C-7.28586127 124.24993394 -11.19644003 124.28094591 -15.10742188 124.3125 C-17.58853854 124.31903044 -20.06965897 124.32428075 -22.55078125 124.328125 C-23.72175858 124.3404718 -24.8927359 124.3528186 -26.09919739 124.36553955 C-27.19350571 124.36253845 -28.28781403 124.35953735 -29.4152832 124.35644531 C-30.37521683 124.36009094 -31.33515045 124.36373657 -32.32417297 124.36749268 C-35.60290431 123.91719834 -37.37504527 123.00955406 -40 121 C-42.63560026 117.50153956 -43.45103822 114.63097815 -43.89135742 110.31103516 C-44.01125534 109.19282379 -44.13115326 108.07461243 -44.25468445 106.92251587 C-44.37044327 105.72347626 -44.48620209 104.52443665 -44.60546875 103.2890625 C-44.79886589 101.42681534 -44.79886589 101.42681534 -44.99617004 99.52694702 C-45.26643961 96.9031225 -45.53216497 94.27934228 -45.78979492 91.65429688 C-46.18331157 87.64558156 -46.59791065 83.63928365 -47.01367188 79.6328125 C-47.27442227 77.08082959 -47.53421948 74.52874908 -47.79296875 71.9765625 C-47.91480026 70.78157135 -48.03663177 69.5865802 -48.16215515 68.3553772 C-48.70014873 62.87752184 -49.1544376 57.5047759 -49 52 C-50.3303125 52.1546875 -50.3303125 52.1546875 -51.6875 52.3125 C-55 52 -55 52 -57.875 50 C-60.23580148 46.66710379 -60.58449805 45.00889669 -60.6640625 41.0625 C-59.58218419 37.70231324 -57.71451192 36.2203225 -55 34 C-52.18286312 32.62910501 -49.29191739 31.64526013 -46.3125 30.6875 C-45.54099609 30.42388672 -44.76949219 30.16027344 -43.97460938 29.88867188 C-38.35765016 28 -38.35765016 28 -36 28 C-36.33 26.96875 -36.66 25.9375 -37 24.875 C-38.23596315 20.46465668 -38.79612809 16.8308072 -36.91796875 12.51171875 C-34.44787884 9.27695742 -31.71779444 8.248955 -28 6.9375 C-27.33081543 6.6885498 -26.66163086 6.43959961 -25.97216797 6.18310547 C-24.6189757 5.68136002 -23.26334174 5.1861475 -21.90527344 4.69775391 C-20.21692897 4.07944426 -18.5480101 3.40865073 -16.8828125 2.73046875 C-11.36244879 0.51763174 -5.96964611 -1.38409134 0 0 Z M-7.41430664 7.64916992 C-10.63679808 8.8122711 -13.85306125 9.98879396 -17.0625 11.1875 C-18.75342773 11.78788086 -18.75342773 11.78788086 -20.47851562 12.40039062 C-21.54908203 12.79806641 -22.61964844 13.19574219 -23.72265625 13.60546875 C-24.71015869 13.96793701 -25.69766113 14.33040527 -26.71508789 14.70385742 C-29.09823998 15.78177698 -29.09823998 15.78177698 -29.95483398 17.8371582 C-30.15264446 20.5625675 -30.15264446 20.5625675 -28 25 C-14.14 20.05 -14.14 20.05 0 15 C-2.10921318 7.84646435 -2.10921318 7.84646435 -7.41430664 7.64916992 Z " fill="#65CAFD" transform="translate(75,2)"/>
<path d="M0 0 C4.10901108 3.03709515 5.80785773 6.47792365 8 11 C9.12277344 10.566875 10.24554688 10.13375 11.40234375 9.6875 C12.91377688 9.12423299 14.42551214 8.56177624 15.9375 8 C16.67291016 7.71382812 17.40832031 7.42765625 18.16601562 7.1328125 C23.46043595 5.19075439 28.35402725 4.26959217 34 5 C36.5625 6.4375 36.5625 6.4375 38 9 C38.54055791 12.10109538 38.73535289 14.9288203 38 18 C34.90305226 21.78081781 31.70802645 23.16384442 27.171875 24.83984375 C26.50520813 25.08867813 25.83854126 25.33751251 25.15167236 25.59388733 C23.73811575 26.11911102 22.32258953 26.63906021 20.90527344 27.15405273 C18.79440761 27.92135772 16.68985792 28.70411338 14.5859375 29.49023438 C7.06371495 32.2792043 -0.50052205 34.82455539 -8.17193604 37.17012024 C-14.87622178 39.23498101 -21.43700407 41.6496832 -28 44.125 C-29.14855469 44.55425781 -30.29710938 44.98351563 -31.48046875 45.42578125 C-37.48645162 47.67060248 -37.48645162 47.67060248 -43.4777832 49.95410156 C-50.77010956 52.75198052 -50.77010956 52.75198052 -55 52 C-57.85801731 50.01181405 -59.61901083 48.52395669 -60.484375 45.0625 C-60.75083963 41.15435215 -60.50975434 39.64941306 -58.00390625 36.45703125 C-54.30496231 33.43149713 -50.81514244 32.13491432 -46.3125 30.6875 C-45.54099609 30.42388672 -44.76949219 30.16027344 -43.97460938 29.88867188 C-38.35765016 28 -38.35765016 28 -36 28 C-36.33 26.96875 -36.66 25.9375 -37 24.875 C-38.23596315 20.46465668 -38.79612809 16.8308072 -36.91796875 12.51171875 C-34.44787884 9.27695742 -31.71779444 8.248955 -28 6.9375 C-27.33081543 6.6885498 -26.66163086 6.43959961 -25.97216797 6.18310547 C-24.6189757 5.68136002 -23.26334174 5.1861475 -21.90527344 4.69775391 C-20.21692897 4.07944426 -18.5480101 3.40865073 -16.8828125 2.73046875 C-11.36244879 0.51763174 -5.96964611 -1.38409134 0 0 Z M-7.41430664 7.64916992 C-10.63679808 8.8122711 -13.85306125 9.98879396 -17.0625 11.1875 C-18.75342773 11.78788086 -18.75342773 11.78788086 -20.47851562 12.40039062 C-21.54908203 12.79806641 -22.61964844 13.19574219 -23.72265625 13.60546875 C-24.71015869 13.96793701 -25.69766113 14.33040527 -26.71508789 14.70385742 C-29.09823998 15.78177698 -29.09823998 15.78177698 -29.95483398 17.8371582 C-30.15264446 20.5625675 -30.15264446 20.5625675 -28 25 C-14.14 20.05 -14.14 20.05 0 15 C-2.10921318 7.84646435 -2.10921318 7.84646435 -7.41430664 7.64916992 Z " fill="#383838" transform="translate(75,2)"/>
<path d="M0 0 C0.06850662 0.9460183 0.06850662 0.9460183 0.13839722 1.91114807 C0.619897 8.54785863 1.1077604 15.18408075 1.59912109 21.82006836 C1.78105206 24.28805045 1.96142587 26.75614788 2.14013672 29.22436523 C2.08122437 54.83404229 2.08122437 54.83404229 12 77 C1.06609377 77.57323392 1.06609377 77.57323392 -3 74 C-5.49443095 70.41862708 -6.44927535 67.65079886 -6.89135742 63.3269043 C-7.01125534 62.21192062 -7.13115326 61.09693695 -7.25468445 59.94816589 C-7.37044327 58.75226334 -7.48620209 57.55636078 -7.60546875 56.32421875 C-7.73440018 55.08509232 -7.8633316 53.84596588 -7.99617004 52.56929016 C-8.33551907 49.28032743 -8.66380872 45.9904969 -8.98736572 42.69995117 C-9.31828739 39.37236674 -9.66743726 36.04672835 -10.01367188 32.72070312 C-10.27445668 30.17197908 -10.53425473 27.62315383 -10.79296875 25.07421875 C-10.91480026 23.88438889 -11.03663177 22.69455902 -11.16215515 21.46867371 C-11.73728076 15.61313305 -12.13945292 9.88364975 -12 4 C-10.18821242 3.33139964 -8.37554984 2.66516988 -6.5625 2 C-5.55316406 1.62875 -4.54382812 1.2575 -3.50390625 0.875 C-1 0 -1 0 0 0 Z " fill="#4DA8FE" transform="translate(38,49)"/>
<path d="M0 0 C3.74123225 2.78602401 5.70508065 5.52664224 7 10 C7 10.99 7 11.98 7 13 C4.69 13.66 2.38 14.32 0 15 C-1.98 11.535 -1.98 11.535 -4 8 C-7.22981622 9.12314109 -10.45873447 10.24884234 -13.6875 11.375 C-14.59951172 11.69210937 -15.51152344 12.00921875 -16.45117188 12.3359375 C-17.33740234 12.6453125 -18.22363281 12.9546875 -19.13671875 13.2734375 C-19.94842529 13.55622559 -20.76013184 13.83901367 -21.59643555 14.13037109 C-24.08833961 15.03196198 -26.54500328 16.00271729 -29 17 C-28.67 19.97 -28.34 22.94 -28 26 C-30.31 26.66 -32.62 27.32 -35 28 C-37.17390055 23.47104051 -38.66863537 20.12620453 -38 15 C-36.43179713 11.40667185 -35.33340372 10.17364777 -31.8125 8.33984375 C-30.54833458 7.85465233 -29.27695793 7.38794794 -28 6.9375 C-26.99622314 6.56407471 -26.99622314 6.56407471 -25.97216797 6.18310547 C-24.6189757 5.68136002 -23.26334174 5.1861475 -21.90527344 4.69775391 C-20.21692897 4.07944426 -18.5480101 3.40865073 -16.8828125 2.73046875 C-11.36766035 0.51972079 -5.96401148 -1.39200268 0 0 Z " fill="#64CBFE" transform="translate(75,2)"/>
<path d="M0 0 C3.53571429 0.53571429 3.53571429 0.53571429 5 2 C5.10389938 3.64644288 5.13852583 5.29731732 5.14526367 6.94702148 C5.15164352 8.00159042 5.15802338 9.05615936 5.16459656 10.14268494 C5.16570938 11.29055984 5.1668222 12.43843475 5.16796875 13.62109375 C5.17129715 14.79132584 5.17462555 15.96155792 5.17805481 17.16725159 C5.18312909 19.64803676 5.18546298 22.12882878 5.18530273 24.60961914 C5.18748857 28.41759419 5.20563751 32.22527943 5.22460938 36.03320312 C5.22754324 38.437499 5.22952808 40.84179627 5.23046875 43.24609375 C5.23765427 44.39194443 5.24483978 45.5377951 5.25224304 46.71836853 C5.24916641 47.77608963 5.24608978 48.83381073 5.24291992 49.92358398 C5.24434494 50.85766586 5.24576996 51.79174774 5.24723816 52.75413513 C5 55 5 55 3 57 C0.375 56.625 0.375 56.625 -2 56 C-2.05057791 48.34622001 -2.08568184 40.69248287 -2.10986328 33.03857422 C-2.11994064 30.43308909 -2.1336027 27.82761531 -2.15087891 25.22216797 C-2.17505102 21.48402101 -2.1864656 17.74602315 -2.1953125 14.0078125 C-2.20563507 12.83695099 -2.21595764 11.66608948 -2.22659302 10.45974731 C-2.22674408 9.37877777 -2.22689514 8.29780823 -2.22705078 7.18408203 C-2.231492 6.22921906 -2.23593323 5.27435608 -2.24050903 4.29055786 C-2 2 -2 2 0 0 Z " fill="#393B3D" transform="translate(66,54)"/>
<path d="M0 0 C4.70588235 0.70588235 4.70588235 0.70588235 6 2 C6.1011692 5.09081465 6.13968558 8.15882555 6.1328125 11.25 C6.13376923 12.17844727 6.13472595 13.10689453 6.13571167 14.06347656 C6.13639355 16.03059965 6.13453872 17.99772496 6.13037109 19.96484375 C6.12502295 22.98703026 6.13031582 26.00906815 6.13671875 29.03125 C6.13605797 30.93750033 6.13477681 32.84375057 6.1328125 34.75 C6.13483673 35.66040039 6.13686096 36.57080078 6.13894653 37.50878906 C6.11494969 43.88505031 6.11494969 43.88505031 5 45 C2.5 45.125 2.5 45.125 0 45 C-1.53084425 43.46915575 -1.12715779 42.08796856 -1.12939453 39.95507812 C-1.13254669 39.09748901 -1.13569885 38.2398999 -1.13894653 37.35632324 C-1.1369223 36.42404907 -1.13489807 35.4917749 -1.1328125 34.53125 C-1.13376923 33.58060669 -1.13472595 32.62996338 -1.13571167 31.6505127 C-1.13639357 29.63631118 -1.13453862 27.62210748 -1.13037109 25.60791016 C-1.12502298 22.51329645 -1.13031577 19.4188279 -1.13671875 16.32421875 C-1.13605797 14.37239551 -1.13477681 12.42057236 -1.1328125 10.46875 C-1.13483673 9.53647583 -1.13686096 8.60420166 -1.13894653 7.64367676 C-1.13579437 6.78608765 -1.13264221 5.92849854 -1.12939453 5.04492188 C-1.12859894 4.28626831 -1.12780334 3.52761475 -1.12698364 2.74597168 C-1 1 -1 1 0 0 Z " fill="#3A3D3F" transform="translate(84,60)"/>
<path d="M0 0 C4.70588235 0.70588235 4.70588235 0.70588235 6 2 C6.11356724 5.0063825 6.16418912 7.98892442 6.16796875 10.99609375 C6.17129715 11.8999733 6.17462555 12.80385284 6.17805481 13.73512268 C6.18312796 15.65096527 6.18546302 17.56681672 6.18530273 19.48266602 C6.18748813 22.42153418 6.20563665 25.36002652 6.22460938 28.29882812 C6.22754337 30.15624871 6.22952813 32.01367109 6.23046875 33.87109375 C6.23765427 34.75445908 6.24483978 35.6378244 6.25224304 36.54795837 C6.22882139 42.77117861 6.22882139 42.77117861 4 45 C1.375 44.625 1.375 44.625 -1 44 C-1.02464513 37.8944529 -1.04283371 31.78893449 -1.05493164 25.68334961 C-1.05997288 23.60456844 -1.06680574 21.52579084 -1.07543945 19.44702148 C-1.08751422 16.46597414 -1.09323024 13.48497351 -1.09765625 10.50390625 C-1.10539818 9.10078941 -1.10539818 9.10078941 -1.11329651 7.66932678 C-1.11337204 6.80850998 -1.11344757 5.94769318 -1.11352539 5.06079102 C-1.115746 4.29912125 -1.11796661 3.53745148 -1.12025452 2.75270081 C-1 1 -1 1 0 0 Z " fill="#3C4346" transform="translate(47,60)"/>
<path d="M0 0 C0 0.33 0 0.66 0 1 C-1.26199219 1.25007812 -2.52398437 1.50015625 -3.82421875 1.7578125 C-9.34424171 2.98784699 -14.53647887 4.86045112 -19.8125 6.875 C-20.73998047 7.21402344 -21.66746094 7.55304687 -22.62304688 7.90234375 C-29.1626019 10.23988696 -29.1626019 10.23988696 -34 15 C-34.30617131 17.23696828 -34.30617131 17.23696828 -33.8125 19.5 C-33.69519531 20.2528125 -33.57789063 21.005625 -33.45703125 21.78125 C-33.02644278 23.87162822 -32.53964098 25.93528669 -32 28 C-32.99 27.67 -33.98 27.34 -35 27 C-36.79341325 22.94122266 -37.46950965 19.4133907 -37 15 C-35.43806139 11.40246632 -34.3335721 10.17373547 -30.8125 8.33984375 C-29.54831318 7.8547081 -28.27694034 7.38799781 -27 6.9375 C-25.99731079 6.56407471 -25.99731079 6.56407471 -24.97436523 6.18310547 C-23.62195493 5.68123004 -22.26705141 5.18601897 -20.90966797 4.69775391 C-19.20932843 4.07648436 -17.52688013 3.40673611 -15.84765625 2.73046875 C-10.28730182 0.52348375 -5.9829343 -0.45154221 0 0 Z " fill="#55B1FE" transform="translate(74,2)"/>
</svg>
