<?xml version="1.0" encoding="UTF-8"?>
<svg version="1.1" xmlns="http://www.w3.org/2000/svg" width="64" height="64">
<path d="M0 0 C6.07487688 3.51703398 10.62619038 9.18614685 12.5 16 C14.12717447 24.13587237 12.58025452 30.40099247 9.5 38 C10.28032593 38.7410498 10.28032593 38.7410498 11.07641602 39.49707031 C13.41802535 41.73497568 15.74025874 43.99201047 18.0625 46.25 C18.88169922 47.02730469 19.70089844 47.80460937 20.54492188 48.60546875 C21.70024414 49.73662109 21.70024414 49.73662109 22.87890625 50.890625 C23.95507202 51.92751465 23.95507202 51.92751465 25.05297852 52.98535156 C26.5 55 26.5 55 26.30834961 57.14355469 C25.33418481 59.38080903 24.50370583 60.58998478 22.5 62 C18.84098392 61.60522152 17.12572514 59.97957332 14.609375 57.40234375 C13.54589844 56.32436523 13.54589844 56.32436523 12.4609375 55.22460938 C11.73132812 54.46986328 11.00171875 53.71511719 10.25 52.9375 C9.50492188 52.17888672 8.75984375 51.42027344 7.9921875 50.63867188 C6.15453306 48.76567793 4.32424276 46.88604389 2.5 45 C1.70227173 45.31070435 1.70227173 45.31070435 0.88842773 45.62768555 C0.18145752 45.8987915 -0.5255127 46.16989746 -1.25390625 46.44921875 C-1.9507251 46.71822998 -2.64754395 46.98724121 -3.36547852 47.2644043 C-9.89859328 49.51583685 -16.01324267 49.38985796 -22.5 47 C-29.10236691 43.71497242 -33.3193118 39.65956591 -36.5 33 C-38.6874496 26.4376512 -38.8169964 17.76148032 -35.8125 11.4375 C-28.16650948 -1.14484932 -13.6322479 -6.18327226 0 0 Z " fill="#BDDAFD" transform="translate(37.5,2)"/>
<path d="M0 0 C6.07487688 3.51703398 10.62619038 9.18614685 12.5 16 C14.12717447 24.13587237 12.58025452 30.40099247 9.5 38 C10.28032593 38.7410498 10.28032593 38.7410498 11.07641602 39.49707031 C13.41802535 41.73497568 15.74025874 43.99201047 18.0625 46.25 C18.88169922 47.02730469 19.70089844 47.80460937 20.54492188 48.60546875 C21.70024414 49.73662109 21.70024414 49.73662109 22.87890625 50.890625 C23.95507202 51.92751465 23.95507202 51.92751465 25.05297852 52.98535156 C26.5 55 26.5 55 26.30834961 57.14355469 C25.33418481 59.38080903 24.50370583 60.58998478 22.5 62 C18.84098392 61.60522152 17.12572514 59.97957332 14.609375 57.40234375 C13.54589844 56.32436523 13.54589844 56.32436523 12.4609375 55.22460938 C11.73132812 54.46986328 11.00171875 53.71511719 10.25 52.9375 C9.50492188 52.17888672 8.75984375 51.42027344 7.9921875 50.63867188 C6.15453306 48.76567793 4.32424276 46.88604389 2.5 45 C1.70227173 45.31070435 1.70227173 45.31070435 0.88842773 45.62768555 C0.18145752 45.8987915 -0.5255127 46.16989746 -1.25390625 46.44921875 C-1.9507251 46.71822998 -2.64754395 46.98724121 -3.36547852 47.2644043 C-9.89859328 49.51583685 -16.01324267 49.38985796 -22.5 47 C-29.10236691 43.71497242 -33.3193118 39.65956591 -36.5 33 C-38.6874496 26.4376512 -38.8169964 17.76148032 -35.8125 11.4375 C-28.16650948 -1.14484932 -13.6322479 -6.18327226 0 0 Z M-28.1015625 10.7265625 C-31.52203415 15.36999608 -32.20660067 19.61398388 -31.921875 25.31640625 C-31.06110283 30.79187369 -28.99813706 34.57676979 -25 38.375 C-19.05932467 42.23643897 -14.54704229 42.6206202 -7.5 42 C-1.52151532 40.33386493 2.19175497 37.16219443 5.5 32 C7.49105652 26.05096445 7.45948771 19.32456224 4.8125 13.625 C1.86937995 8.48490301 -1.97038079 5.91596455 -7.5 4 C-16.09913511 2.77889711 -22.17037296 4.33245085 -28.1015625 10.7265625 Z " fill="#466283" transform="translate(37.5,2)"/>
<path d="M0 0 C0 5.61 0 11.22 0 17 C-3.96 17 -7.92 17 -12 17 C-12 18.32 -12 19.64 -12 21 C-8.04 21 -4.08 21 0 21 C0 26.61 0 32.22 0 38 C-6.59798746 38 -9.08030419 37.0280665 -14 33 C-18.98303588 26.61149246 -19.93336578 20.93360912 -19 13 C-16.94736185 7.2928986 -13.20527423 3.96181389 -8.16015625 0.8125 C-6 0 -6 0 0 0 Z " fill="#FBFDFE" transform="translate(25,6)"/>
<path d="M0 0 C0 1.65 0 3.3 0 5 C1.32 5.33 2.64 5.66 4 6 C3.3709375 6.01417969 2.741875 6.02835937 2.09375 6.04296875 C-5.13481781 6.44576545 -10.38679133 8.0805872 -15.3828125 13.5 C-18.83839388 18.52630019 -18.81224588 24.11967827 -18 30 C-16.6664266 34.92588676 -14.44646387 38.03797477 -10.25 40.9375 C-6.18433908 43.2148815 -2.62098344 43.75244732 2 44 C1.01 44.495 1.01 44.495 0 45 C0 46.98 0 48.96 0 51 C-8.2550832 50.00042834 -15.31314926 47.65475905 -20.63671875 40.93359375 C-25.40398463 33.51632907 -25.69609017 26.72046292 -25 18 C-22.74082539 10.06833261 -16.86475813 5.17854842 -10 1 C-6.52674819 -0.1577506 -3.63932552 -0.06866652 0 0 Z " fill="#6992BF" transform="translate(25,0)"/>
<path d="M0 0 C4.84309854 2.16779311 8.08711009 5.68109226 11.8125 9.375 C12.51826172 10.04789063 13.22402344 10.72078125 13.95117188 11.4140625 C14.61310547 12.06890625 15.27503906 12.72375 15.95703125 13.3984375 C16.56522705 13.99317871 17.17342285 14.58791992 17.80004883 15.20068359 C19 17 19 17 18.7722168 19.11181641 C17.83921551 21.39314173 17.02247062 22.57677994 15 24 C11.34098392 23.60522152 9.62572514 21.97957332 7.109375 19.40234375 C6.40039062 18.68369141 5.69140625 17.96503906 4.9609375 17.22460938 C4.23132812 16.46986328 3.50171875 15.71511719 2.75 14.9375 C2.00492188 14.17888672 1.25984375 13.42027344 0.4921875 12.63867188 C-1.34546694 10.76567793 -3.17575724 8.88604389 -5 7 C-3.64062915 4.1394109 -2.35479531 2.14072301 0 0 Z " fill="#30465E" transform="translate(45,40)"/>
<path d="M0 0 C8.25 0 16.5 0 25 0 C25 1.32 25 2.64 25 4 C16.75 4 8.5 4 0 4 C0 2.68 0 1.36 0 0 Z " fill="#327CCD" transform="translate(13,23)"/>
<path d="M0 0 C3.96 0 7.92 0 12 0 C12 1.32 12 2.64 12 4 C8.04 4 4.08 4 0 4 C0 2.68 0 1.36 0 0 Z " fill="#3897FF" transform="translate(13,23)"/>
</svg>
