<?xml version="1.0" encoding="UTF-8"?>
<svg version="1.1" xmlns="http://www.w3.org/2000/svg" width="64" height="64">
<path d="M0 0 C5.24906677 4.08394211 10.3975067 8.52327424 11.70703125 15.328125 C12.53581895 24.50694873 11.84448519 31.14252315 7.70703125 39.328125 C8.22201172 39.81692139 8.73699219 40.30571777 9.26757812 40.80932617 C11.59376122 43.03156783 13.90036719 45.2731368 16.20703125 47.515625 C17.01785156 48.28455078 17.82867187 49.05347656 18.6640625 49.84570312 C19.81455078 50.97202148 19.81455078 50.97202148 20.98828125 52.12109375 C22.0565918 53.15012817 22.0565918 53.15012817 23.14648438 54.19995117 C25.03503754 56.77543895 25.03149922 58.20512082 24.70703125 61.328125 C21.58402707 61.65259297 20.1543452 61.65613129 17.57885742 59.76757812 C16.89283447 59.05537109 16.20681152 58.34316406 15.5 57.609375 C14.74912109 56.84238281 13.99824219 56.07539062 13.22460938 55.28515625 C12.45568359 54.47433594 11.68675781 53.66351563 10.89453125 52.828125 C10.10626953 52.01730469 9.31800781 51.20648438 8.50585938 50.37109375 C6.56121952 48.36752541 4.6291806 46.35324098 2.70703125 44.328125 C2.14508057 44.61107422 1.58312988 44.89402344 1.00415039 45.18554688 C-7.00972762 49.01699029 -15.05889271 49.97688689 -23.7890625 47.66796875 C-29.97772899 44.88125928 -34.59794073 39.95268452 -38.23046875 34.328125 C-40.74544629 27.39621816 -40.78672695 17.55979716 -37.73046875 10.828125 C-34.42447362 5.48498498 -29.60809747 -0.04379542 -23.5703125 -2.234375 C-15.89660195 -3.70856982 -6.85348163 -4.24049844 0 0 Z M-27.23046875 7.765625 C-27.91109375 8.61125 -28.59171875 9.456875 -29.29296875 10.328125 C-30.15921875 11.38 -30.15921875 11.38 -31.04296875 12.453125 C-34.22801295 17.2306913 -33.72806281 22.81429666 -33.29296875 28.328125 C-31.25935386 34.10787259 -27.65847455 37.69479957 -22.66796875 41.140625 C-16.74413978 43.22493519 -10.84179772 43.22493519 -4.91796875 41.140625 C0.07253705 37.69479957 3.67341636 34.10787259 5.70703125 28.328125 C6.39016124 22.05830181 6.39436379 16.66839972 2.70703125 11.328125 C-1.27840445 6.69640243 -5.25199734 4.29570681 -11.04296875 2.453125 C-17.16954664 2.21748739 -22.51205435 3.85034497 -27.23046875 7.765625 Z " fill="#AAB5FD" transform="translate(39.29296875,2.671875)"/>
<path d="M0 0 C1.32 0.33 2.64 0.66 4 1 C4 4.96 4 8.92 4 13 C7.96 13 11.92 13 16 13 C16.33 14.32 16.66 15.64 17 17 C16 18 16 18 13.27734375 18.09765625 C10.18489583 18.06510417 7.09244792 18.03255208 4 18 C4 21.96 4 25.92 4 30 C2.68 30.33 1.36 30.66 0 31 C-2.92332269 26.61501596 -2.1356502 23.2225328 -2 18 C-5.63 18 -9.26 18 -13 18 C-13.33 16.68 -13.66 15.36 -14 14 C-13 13 -13 13 -10.49609375 12.90234375 C-8.98208984 12.91974609 -8.98208984 12.91974609 -7.4375 12.9375 C-6.42558594 12.94652344 -5.41367187 12.95554687 -4.37109375 12.96484375 C-3.19740234 12.98224609 -3.19740234 12.98224609 -2 13 C-2.02320313 12.31292969 -2.04640625 11.62585937 -2.0703125 10.91796875 C-2.08835937 10.01691406 -2.10640625 9.11585937 -2.125 8.1875 C-2.14820313 7.29417969 -2.17140625 6.40085937 -2.1953125 5.48046875 C-2 3 -2 3 0 0 Z " fill="#9CC2FE" transform="translate(24,10)"/>
</svg>
